<svg xmlns="http://www.w3.org/2000/svg" version="1.1" xmlns:xlink="http://www.w3.org/1999/xlink" xmlns:svgjs="http://svgjs.com/svgjs" width="1440" height="563" preserveAspectRatio="none" viewBox="0 0 1440 563"><g mask="url(&quot;#SvgjsMask1008&quot;)" fill="none"><path d="M-89.02 377.03L-89.02 377.03" stroke="#132e65" stroke-width="1.5"></path><path d="M-89.02 377.03L-55.87 512.29" stroke="#132e65" stroke-width="1.5"></path><path d="M-89.02 377.03L51.94 376.26" stroke="#132e65" stroke-width="1.5"></path><path d="M-89.02 377.03L96.54 527.61" stroke="#132e65" stroke-width="1.5"></path><path d="M-89.02 377.03L-86.45 637.99" stroke="#132e65" stroke-width="1.5"></path><path d="M-55.87 512.29L-55.87 512.29" stroke="#132e65" stroke-width="1.5"></path><path d="M-55.87 512.29L-86.45 637.99" stroke="#132e65" stroke-width="1.5"></path><path d="M-55.87 512.29L96.54 527.61" stroke="#132e65" stroke-width="1.5"></path><path d="M-55.87 512.29L51.94 376.26" stroke="#132e65" stroke-width="1.5"></path><path d="M-55.87 512.29L208.26 518.15" stroke="#132e65" stroke-width="1.5"></path><path d="M-86.45 637.99L-86.45 637.99" stroke="#132e65" stroke-width="1.5"></path><path d="M-86.45 637.99L96.54 527.61" stroke="#132e65" stroke-width="1.5"></path><path d="M51.94 376.26L51.94 376.26" stroke="#132e65" stroke-width="1.5"></path><path d="M51.94 376.26L193.9 371.35" stroke="#132e65" stroke-width="1.5"></path><path d="M51.94 376.26L96.54 527.61" stroke="#132e65" stroke-width="1.5"></path><path d="M96.54 527.61L96.54 527.61" stroke="#132e65" stroke-width="1.5"></path><path d="M96.54 527.61L208.26 518.15" stroke="#132e65" stroke-width="1.5"></path><path d="M96.54 527.61L193.9 371.35" stroke="#132e65" stroke-width="1.5"></path><path d="M96.54 527.61L201.6 686.53" stroke="#132e65" stroke-width="1.5"></path><path d="M193.9 371.35L193.9 371.35" stroke="#132e65" stroke-width="1.5"></path><path d="M193.9 371.35L337.65 383.81" stroke="#132e65" stroke-width="1.5"></path><path d="M193.9 371.35L208.26 518.15" stroke="#132e65" stroke-width="1.5"></path><path d="M193.9 371.35L373.44 527.44" stroke="#132e65" stroke-width="1.5"></path><path d="M193.9 371.35L-89.02 377.03" stroke="#132e65" stroke-width="1.5"></path><path d="M208.26 518.15L208.26 518.15" stroke="#132e65" stroke-width="1.5"></path><path d="M208.26 518.15L373.44 527.44" stroke="#132e65" stroke-width="1.5"></path><path d="M201.6 686.53L201.6 686.53" stroke="#132e65" stroke-width="1.5"></path><path d="M201.6 686.53L208.26 518.15" stroke="#132e65" stroke-width="1.5"></path><path d="M201.6 686.53L406.67 688.08" stroke="#132e65" stroke-width="1.5"></path><path d="M337.65 383.81L337.65 383.81" stroke="#132e65" stroke-width="1.5"></path><path d="M337.65 383.81L373.44 527.44" stroke="#132e65" stroke-width="1.5"></path><path d="M337.65 383.81L208.26 518.15" stroke="#132e65" stroke-width="1.5"></path><path d="M337.65 383.81L491.33 495.19" stroke="#132e65" stroke-width="1.5"></path><path d="M337.65 383.81L540.19 389.18" stroke="#132e65" stroke-width="1.5"></path><path d="M373.44 527.44L373.44 527.44" stroke="#132e65" stroke-width="1.5"></path><path d="M373.44 527.44L491.33 495.19" stroke="#132e65" stroke-width="1.5"></path><path d="M373.44 527.44L406.67 688.08" stroke="#132e65" stroke-width="1.5"></path><path d="M373.44 527.44L540.19 389.18" stroke="#132e65" stroke-width="1.5"></path><path d="M373.44 527.44L201.6 686.53" stroke="#132e65" stroke-width="1.5"></path><path d="M406.67 688.08L406.67 688.08" stroke="#132e65" stroke-width="1.5"></path><path d="M406.67 688.08L558.4 680.71" stroke="#132e65" stroke-width="1.5"></path><path d="M406.67 688.08L491.33 495.19" stroke="#132e65" stroke-width="1.5"></path><path d="M406.67 688.08L208.26 518.15" stroke="#132e65" stroke-width="1.5"></path><path d="M540.19 389.18L540.19 389.18" stroke="#132e65" stroke-width="1.5"></path><path d="M540.19 389.18L491.33 495.19" stroke="#132e65" stroke-width="1.5"></path><path d="M540.19 389.18L659.67 369.73" stroke="#132e65" stroke-width="1.5"></path><path d="M540.19 389.18L652.5 535.89" stroke="#132e65" stroke-width="1.5"></path><path d="M491.33 495.19L491.33 495.19" stroke="#132e65" stroke-width="1.5"></path><path d="M491.33 495.19L652.5 535.89" stroke="#132e65" stroke-width="1.5"></path><path d="M491.33 495.19L558.4 680.71" stroke="#132e65" stroke-width="1.5"></path><path d="M558.4 680.71L558.4 680.71" stroke="#132e65" stroke-width="1.5"></path><path d="M558.4 680.71L652.5 535.89" stroke="#132e65" stroke-width="1.5"></path><path d="M659.67 369.73L659.67 369.73" stroke="#132e65" stroke-width="1.5"></path><path d="M659.67 369.73L788.54 365.71" stroke="#132e65" stroke-width="1.5"></path><path d="M652.5 535.89L652.5 535.89" stroke="#132e65" stroke-width="1.5"></path><path d="M652.5 535.89L790.43 531.7" stroke="#132e65" stroke-width="1.5"></path><path d="M652.5 535.89L659.67 369.73" stroke="#132e65" stroke-width="1.5"></path><path d="M846.97 215.19L846.97 215.19" stroke="#132e65" stroke-width="1.5"></path><path d="M846.97 215.19L957.2 262.21" stroke="#132e65" stroke-width="1.5"></path><path d="M846.97 215.19L788.54 365.71" stroke="#132e65" stroke-width="1.5"></path><path d="M846.97 215.19L943.33 41.31" stroke="#132e65" stroke-width="1.5"></path><path d="M788.54 365.71L788.54 365.71" stroke="#132e65" stroke-width="1.5"></path><path d="M788.54 365.71L790.43 531.7" stroke="#132e65" stroke-width="1.5"></path><path d="M788.54 365.71L957.2 262.21" stroke="#132e65" stroke-width="1.5"></path><path d="M788.54 365.71L994.59 388.05" stroke="#132e65" stroke-width="1.5"></path><path d="M790.43 531.7L790.43 531.7" stroke="#132e65" stroke-width="1.5"></path><path d="M790.43 531.7L659.67 369.73" stroke="#132e65" stroke-width="1.5"></path><path d="M790.43 531.7L972.03 649.25" stroke="#132e65" stroke-width="1.5"></path><path d="M943.33 41.31L943.33 41.31" stroke="#132e65" stroke-width="1.5"></path><path d="M943.33 41.31L1133.26 42.12" stroke="#132e65" stroke-width="1.5"></path><path d="M943.33 41.31L957.2 262.21" stroke="#132e65" stroke-width="1.5"></path><path d="M943.33 41.31L1158.47 -52.58" stroke="#132e65" stroke-width="1.5"></path><path d="M943.33 41.31L1161.98 216.83" stroke="#132e65" stroke-width="1.5"></path><path d="M957.2 262.21L957.2 262.21" stroke="#132e65" stroke-width="1.5"></path><path d="M957.2 262.21L994.59 388.05" stroke="#132e65" stroke-width="1.5"></path><path d="M957.2 262.21L1111.21 369.09" stroke="#132e65" stroke-width="1.5"></path><path d="M957.2 262.21L1161.98 216.83" stroke="#132e65" stroke-width="1.5"></path><path d="M994.59 388.05L994.59 388.05" stroke="#132e65" stroke-width="1.5"></path><path d="M994.59 388.05L1010.86 489.59" stroke="#132e65" stroke-width="1.5"></path><path d="M994.59 388.05L1111.21 369.09" stroke="#132e65" stroke-width="1.5"></path><path d="M994.59 388.05L1098.69 539.53" stroke="#132e65" stroke-width="1.5"></path><path d="M1010.86 489.59L1010.86 489.59" stroke="#132e65" stroke-width="1.5"></path><path d="M1010.86 489.59L1098.69 539.53" stroke="#132e65" stroke-width="1.5"></path><path d="M1010.86 489.59L1111.21 369.09" stroke="#132e65" stroke-width="1.5"></path><path d="M972.03 649.25L972.03 649.25" stroke="#132e65" stroke-width="1.5"></path><path d="M972.03 649.25L1010.86 489.59" stroke="#132e65" stroke-width="1.5"></path><path d="M972.03 649.25L1098.69 539.53" stroke="#132e65" stroke-width="1.5"></path><path d="M972.03 649.25L1148.73 676.27" stroke="#132e65" stroke-width="1.5"></path><path d="M972.03 649.25L994.59 388.05" stroke="#132e65" stroke-width="1.5"></path><path d="M1158.47 -52.58L1158.47 -52.58" stroke="#132e65" stroke-width="1.5"></path><path d="M1158.47 -52.58L1133.26 42.12" stroke="#132e65" stroke-width="1.5"></path><path d="M1158.47 -52.58L1255.04 -74.63" stroke="#132e65" stroke-width="1.5"></path><path d="M1158.47 -52.58L1250.27 90.45" stroke="#132e65" stroke-width="1.5"></path><path d="M1158.47 -52.58L1161.98 216.83" stroke="#132e65" stroke-width="1.5"></path><path d="M1133.26 42.12L1133.26 42.12" stroke="#132e65" stroke-width="1.5"></path><path d="M1133.26 42.12L1250.27 90.45" stroke="#132e65" stroke-width="1.5"></path><path d="M1133.26 42.12L1255.04 -74.63" stroke="#132e65" stroke-width="1.5"></path><path d="M1133.26 42.12L1161.98 216.83" stroke="#132e65" stroke-width="1.5"></path><path d="M1133.26 42.12L1282.61 225.14" stroke="#132e65" stroke-width="1.5"></path><path d="M1161.98 216.83L1161.98 216.83" stroke="#132e65" stroke-width="1.5"></path><path d="M1161.98 216.83L1282.61 225.14" stroke="#132e65" stroke-width="1.5"></path><path d="M1161.98 216.83L1250.27 90.45" stroke="#132e65" stroke-width="1.5"></path><path d="M1161.98 216.83L1111.21 369.09" stroke="#132e65" stroke-width="1.5"></path><path d="M1161.98 216.83L1242.95 368.09" stroke="#132e65" stroke-width="1.5"></path><path d="M1111.21 369.09L1111.21 369.09" stroke="#132e65" stroke-width="1.5"></path><path d="M1111.21 369.09L1242.95 368.09" stroke="#132e65" stroke-width="1.5"></path><path d="M1098.69 539.53L1098.69 539.53" stroke="#132e65" stroke-width="1.5"></path><path d="M1098.69 539.53L1148.73 676.27" stroke="#132e65" stroke-width="1.5"></path><path d="M1148.73 676.27L1148.73 676.27" stroke="#132e65" stroke-width="1.5"></path><path d="M1148.73 676.27L1247.45 677.9" stroke="#132e65" stroke-width="1.5"></path><path d="M1255.04 -74.63L1255.04 -74.63" stroke="#132e65" stroke-width="1.5"></path><path d="M1250.27 90.45L1250.27 90.45" stroke="#132e65" stroke-width="1.5"></path><path d="M1250.27 90.45L1282.61 225.14" stroke="#132e65" stroke-width="1.5"></path><path d="M1250.27 90.45L1255.04 -74.63" stroke="#132e65" stroke-width="1.5"></path><path d="M1282.61 225.14L1282.61 225.14" stroke="#132e65" stroke-width="1.5"></path><path d="M1282.61 225.14L1242.95 368.09" stroke="#132e65" stroke-width="1.5"></path><path d="M1282.61 225.14L1439.14 207.61" stroke="#132e65" stroke-width="1.5"></path><path d="M1242.95 368.09L1242.95 368.09" stroke="#132e65" stroke-width="1.5"></path><path d="M1242.95 368.09L1253.73 540.92" stroke="#132e65" stroke-width="1.5"></path><path d="M1253.73 540.92L1253.73 540.92" stroke="#132e65" stroke-width="1.5"></path><path d="M1253.73 540.92L1247.45 677.9" stroke="#132e65" stroke-width="1.5"></path><path d="M1247.45 677.9L1247.45 677.9" stroke="#132e65" stroke-width="1.5"></path><path d="M1461.91 -68.43L1461.91 -68.43" stroke="#132e65" stroke-width="1.5"></path><path d="M1461.91 -68.43L1580.96 -84.88" stroke="#132e65" stroke-width="1.5"></path><path d="M1461.91 -68.43L1454.64 100.23" stroke="#132e65" stroke-width="1.5"></path><path d="M1461.91 -68.43L1582.96 99.35" stroke="#132e65" stroke-width="1.5"></path><path d="M1454.64 100.23L1454.64 100.23" stroke="#132e65" stroke-width="1.5"></path><path d="M1454.64 100.23L1439.14 207.61" stroke="#132e65" stroke-width="1.5"></path><path d="M1454.64 100.23L1582.96 99.35" stroke="#132e65" stroke-width="1.5"></path><path d="M1454.64 100.23L1595.28 200.78" stroke="#132e65" stroke-width="1.5"></path><path d="M1454.64 100.23L1250.27 90.45" stroke="#132e65" stroke-width="1.5"></path><path d="M1439.14 207.61L1439.14 207.61" stroke="#132e65" stroke-width="1.5"></path><path d="M1439.14 207.61L1595.28 200.78" stroke="#132e65" stroke-width="1.5"></path><path d="M1459.62 502.08L1459.62 502.08" stroke="#132e65" stroke-width="1.5"></path><path d="M1459.62 502.08L1545.53 558.23" stroke="#132e65" stroke-width="1.5"></path><path d="M1459.62 502.08L1594.16 392.43" stroke="#132e65" stroke-width="1.5"></path><path d="M1459.62 502.08L1397.85 676.89" stroke="#132e65" stroke-width="1.5"></path><path d="M1459.62 502.08L1253.73 540.92" stroke="#132e65" stroke-width="1.5"></path><path d="M1397.85 676.89L1397.85 676.89" stroke="#132e65" stroke-width="1.5"></path><path d="M1397.85 676.89L1247.45 677.9" stroke="#132e65" stroke-width="1.5"></path><path d="M1580.96 -84.88L1580.96 -84.88" stroke="#132e65" stroke-width="1.5"></path><path d="M1580.96 -84.88L1582.96 99.35" stroke="#132e65" stroke-width="1.5"></path><path d="M1582.96 99.35L1582.96 99.35" stroke="#132e65" stroke-width="1.5"></path><path d="M1582.96 99.35L1595.28 200.78" stroke="#132e65" stroke-width="1.5"></path><path d="M1595.28 200.78L1595.28 200.78" stroke="#132e65" stroke-width="1.5"></path><path d="M1594.16 392.43L1594.16 392.43" stroke="#132e65" stroke-width="1.5"></path><path d="M1594.16 392.43L1545.53 558.23" stroke="#132e65" stroke-width="1.5"></path><path d="M1545.53 558.23L1545.53 558.23" stroke="#132e65" stroke-width="1.5"></path><path d="M1545.53 558.23L1581.29 712.08" stroke="#132e65" stroke-width="1.5"></path><path d="M1545.53 558.23L1397.85 676.89" stroke="#132e65" stroke-width="1.5"></path><path d="M1545.53 558.23L1253.73 540.92" stroke="#132e65" stroke-width="1.5"></path><path d="M1581.29 712.08L1581.29 712.08" stroke="#132e65" stroke-width="1.5"></path><path d="M1581.29 712.08L1397.85 676.89" stroke="#132e65" stroke-width="1.5"></path><path d="M1581.29 712.08L1459.62 502.08" stroke="#132e65" stroke-width="1.5"></path><circle r="5" cx="-89.02" cy="377.03" fill="#132e65"></circle><circle r="5" cx="-55.87" cy="512.29" fill="#132e65"></circle><circle r="5" cx="-86.45" cy="637.99" fill="#132e65"></circle><circle r="5" cx="51.94" cy="376.26" fill="#132e65"></circle><circle r="5" cx="96.54" cy="527.61" fill="#132e65"></circle><circle r="5" cx="193.9" cy="371.35" fill="#132e65"></circle><circle r="5" cx="208.26" cy="518.15" fill="#132e65"></circle><circle r="5" cx="201.6" cy="686.53" fill="#132e65"></circle><circle r="5" cx="337.65" cy="383.81" fill="#132e65"></circle><circle r="5" cx="373.44" cy="527.44" fill="#132e65"></circle><circle r="5" cx="406.67" cy="688.08" fill="#132e65"></circle><circle r="5" cx="540.19" cy="389.18" fill="#132e65"></circle><circle r="5" cx="491.33" cy="495.19" fill="#132e65"></circle><circle r="5" cx="558.4" cy="680.71" fill="#132e65"></circle><circle r="5" cx="659.67" cy="369.73" fill="#132e65"></circle><circle r="5" cx="652.5" cy="535.89" fill="#132e65"></circle><circle r="5" cx="846.97" cy="215.19" fill="#132e65"></circle><circle r="5" cx="788.54" cy="365.71" fill="#132e65"></circle><circle r="5" cx="790.43" cy="531.7" fill="#132e65"></circle><circle r="5" cx="943.33" cy="41.31" fill="#132e65"></circle><circle r="5" cx="957.2" cy="262.21" fill="#132e65"></circle><circle r="5" cx="994.59" cy="388.05" fill="#132e65"></circle><circle r="5" cx="1010.86" cy="489.59" fill="#132e65"></circle><circle r="5" cx="972.03" cy="649.25" fill="#132e65"></circle><circle r="5" cx="1158.47" cy="-52.58" fill="#132e65"></circle><circle r="5" cx="1133.26" cy="42.12" fill="#132e65"></circle><circle r="5" cx="1161.98" cy="216.83" fill="#132e65"></circle><circle r="5" cx="1111.21" cy="369.09" fill="#132e65"></circle><circle r="5" cx="1098.69" cy="539.53" fill="#132e65"></circle><circle r="5" cx="1148.73" cy="676.27" fill="#132e65"></circle><circle r="5" cx="1255.04" cy="-74.63" fill="#132e65"></circle><circle r="5" cx="1250.27" cy="90.45" fill="#132e65"></circle><circle r="5" cx="1282.61" cy="225.14" fill="#132e65"></circle><circle r="5" cx="1242.95" cy="368.09" fill="#132e65"></circle><circle r="5" cx="1253.73" cy="540.92" fill="#132e65"></circle><circle r="5" cx="1247.45" cy="677.9" fill="#132e65"></circle><circle r="5" cx="1461.91" cy="-68.43" fill="#132e65"></circle><circle r="5" cx="1454.64" cy="100.23" fill="#132e65"></circle><circle r="5" cx="1439.14" cy="207.61" fill="#132e65"></circle><circle r="5" cx="1459.62" cy="502.08" fill="#132e65"></circle><circle r="5" cx="1397.85" cy="676.89" fill="#132e65"></circle><circle r="5" cx="1580.96" cy="-84.88" fill="#132e65"></circle><circle r="5" cx="1582.96" cy="99.35" fill="#132e65"></circle><circle r="5" cx="1595.28" cy="200.78" fill="#132e65"></circle><circle r="5" cx="1594.16" cy="392.43" fill="#132e65"></circle><circle r="5" cx="1545.53" cy="558.23" fill="#132e65"></circle><circle r="5" cx="1581.29" cy="712.08" fill="#132e65"></circle><path d="M-84.36 489.85L-84.36 489.85" stroke="hsl(228.5, 77.2%, 51.5%)" stroke-width="1.5"></path><path d="M-84.36 489.85L-97.43 654.53" stroke="hsl(228.5, 77.2%, 51.5%)" stroke-width="1.5"></path><path d="M-84.36 489.85L80.91 551.65" stroke="hsl(228.5, 77.2%, 51.5%)" stroke-width="1.5"></path><path d="M-84.36 489.85L82.09 660.71" stroke="hsl(228.5, 77.2%, 51.5%)" stroke-width="1.5"></path><path d="M252.31 512.47L252.31 512.47" stroke="hsl(228.5, 77.2%, 51.5%)" stroke-width="1.5"></path><path d="M252.31 512.47L360.24 497.31" stroke="hsl(228.5, 77.2%, 51.5%)" stroke-width="1.5"></path><path d="M252.31 512.47L80.91 551.65" stroke="hsl(228.5, 77.2%, 51.5%)" stroke-width="1.5"></path><path d="M360.24 497.31L360.24 497.31" stroke="hsl(228.5, 77.2%, 51.5%)" stroke-width="1.5"></path><path d="M360.24 497.31L497.32 536.01" stroke="hsl(228.5, 77.2%, 51.5%)" stroke-width="1.5"></path><path d="M360.24 497.31L364.45 674.16" stroke="hsl(228.5, 77.2%, 51.5%)" stroke-width="1.5"></path><path d="M360.24 497.31L538.6 685.24" stroke="hsl(228.5, 77.2%, 51.5%)" stroke-width="1.5"></path><path d="M360.24 497.31L639.39 496.24" stroke="hsl(228.5, 77.2%, 51.5%)" stroke-width="1.5"></path><path d="M364.45 674.16L364.45 674.16" stroke="hsl(228.5, 77.2%, 51.5%)" stroke-width="1.5"></path><path d="M364.45 674.16L538.6 685.24" stroke="hsl(228.5, 77.2%, 51.5%)" stroke-width="1.5"></path><path d="M1104.95 490.77L1104.95 490.77" stroke="hsl(228.5, 77.2%, 51.5%)" stroke-width="1.5"></path><path d="M1104.95 490.77L1144.04 402.08" stroke="hsl(228.5, 77.2%, 51.5%)" stroke-width="1.5"></path><path d="M1104.95 490.77L1244.23 537.72" stroke="hsl(228.5, 77.2%, 51.5%)" stroke-width="1.5"></path><path d="M1104.95 490.77L1115.37 695.07" stroke="hsl(228.5, 77.2%, 51.5%)" stroke-width="1.5"></path><path d="M1302.42 374.76L1302.42 374.76" stroke="hsl(228.5, 77.2%, 51.5%)" stroke-width="1.5"></path><path d="M1302.42 374.76L1418.83 376.05" stroke="hsl(228.5, 77.2%, 51.5%)" stroke-width="1.5"></path><path d="M1302.42 374.76L1310.13 220.9" stroke="hsl(228.5, 77.2%, 51.5%)" stroke-width="1.5"></path><path d="M1302.42 374.76L1144.04 402.08" stroke="hsl(228.5, 77.2%, 51.5%)" stroke-width="1.5"></path><path d="M1302.42 374.76L1244.23 537.72" stroke="hsl(228.5, 77.2%, 51.5%)" stroke-width="1.5"></path><path d="M1302.42 374.76L1414.97 515.89" stroke="hsl(228.5, 77.2%, 51.5%)" stroke-width="1.5"></path><path d="M1547.32 547.85L1547.32 547.85" stroke="hsl(228.5, 77.2%, 51.5%)" stroke-width="1.5"></path><path d="M1547.32 547.85L1569.78 649.49" stroke="hsl(228.5, 77.2%, 51.5%)" stroke-width="1.5"></path><path d="M1547.32 547.85L1414.97 515.89" stroke="hsl(228.5, 77.2%, 51.5%)" stroke-width="1.5"></path><path d="M1547.32 547.85L1400.68 638.94" stroke="hsl(228.5, 77.2%, 51.5%)" stroke-width="1.5"></path><path d="M1547.32 547.85L1596.39 343.99" stroke="hsl(228.5, 77.2%, 51.5%)" stroke-width="1.5"></path><path d="M-97.43 654.53L-97.43 654.53" stroke="hsl(228.5, 77.2%, 51.5%)" stroke-width="1.5"></path><path d="M-97.43 654.53L82.09 660.71" stroke="hsl(228.5, 77.2%, 51.5%)" stroke-width="1.5"></path><path d="M-97.43 654.53L80.91 551.65" stroke="hsl(228.5, 77.2%, 51.5%)" stroke-width="1.5"></path><path d="M-97.43 654.53L252.31 512.47" stroke="hsl(228.5, 77.2%, 51.5%)" stroke-width="1.5"></path><path d="M-97.43 654.53L364.45 674.16" stroke="hsl(228.5, 77.2%, 51.5%)" stroke-width="1.5"></path><path d="M-97.43 654.53L360.24 497.31" stroke="hsl(228.5, 77.2%, 51.5%)" stroke-width="1.5"></path><path d="M80.91 551.65L80.91 551.65" stroke="hsl(228.5, 77.2%, 51.5%)" stroke-width="1.5"></path><path d="M80.91 551.65L82.09 660.71" stroke="hsl(228.5, 77.2%, 51.5%)" stroke-width="1.5"></path><path d="M82.09 660.71L82.09 660.71" stroke="hsl(228.5, 77.2%, 51.5%)" stroke-width="1.5"></path><path d="M82.09 660.71L252.31 512.47" stroke="hsl(228.5, 77.2%, 51.5%)" stroke-width="1.5"></path><path d="M82.09 660.71L364.45 674.16" stroke="hsl(228.5, 77.2%, 51.5%)" stroke-width="1.5"></path><path d="M82.09 660.71L360.24 497.31" stroke="hsl(228.5, 77.2%, 51.5%)" stroke-width="1.5"></path><path d="M497.32 536.01L497.32 536.01" stroke="hsl(228.5, 77.2%, 51.5%)" stroke-width="1.5"></path><path d="M497.32 536.01L639.39 496.24" stroke="hsl(228.5, 77.2%, 51.5%)" stroke-width="1.5"></path><path d="M497.32 536.01L538.6 685.24" stroke="hsl(228.5, 77.2%, 51.5%)" stroke-width="1.5"></path><path d="M497.32 536.01L364.45 674.16" stroke="hsl(228.5, 77.2%, 51.5%)" stroke-width="1.5"></path><path d="M497.32 536.01L684.46 669.66" stroke="hsl(228.5, 77.2%, 51.5%)" stroke-width="1.5"></path><path d="M497.32 536.01L252.31 512.47" stroke="hsl(228.5, 77.2%, 51.5%)" stroke-width="1.5"></path><path d="M538.6 685.24L538.6 685.24" stroke="hsl(228.5, 77.2%, 51.5%)" stroke-width="1.5"></path><path d="M538.6 685.24L684.46 669.66" stroke="hsl(228.5, 77.2%, 51.5%)" stroke-width="1.5"></path><path d="M538.6 685.24L639.39 496.24" stroke="hsl(228.5, 77.2%, 51.5%)" stroke-width="1.5"></path><path d="M639.39 496.24L639.39 496.24" stroke="hsl(228.5, 77.2%, 51.5%)" stroke-width="1.5"></path><path d="M639.39 496.24L799.96 491.54" stroke="hsl(228.5, 77.2%, 51.5%)" stroke-width="1.5"></path><path d="M639.39 496.24L684.46 669.66" stroke="hsl(228.5, 77.2%, 51.5%)" stroke-width="1.5"></path><path d="M684.46 669.66L684.46 669.66" stroke="hsl(228.5, 77.2%, 51.5%)" stroke-width="1.5"></path><path d="M684.46 669.66L803.66 651.73" stroke="hsl(228.5, 77.2%, 51.5%)" stroke-width="1.5"></path><path d="M684.46 669.66L799.96 491.54" stroke="hsl(228.5, 77.2%, 51.5%)" stroke-width="1.5"></path><path d="M684.46 669.66L983.79 699.92" stroke="hsl(228.5, 77.2%, 51.5%)" stroke-width="1.5"></path><path d="M845.09 376.1L845.09 376.1" stroke="hsl(228.5, 77.2%, 51.5%)" stroke-width="1.5"></path><path d="M845.09 376.1L957.13 345.66" stroke="hsl(228.5, 77.2%, 51.5%)" stroke-width="1.5"></path><path d="M845.09 376.1L799.96 491.54" stroke="hsl(228.5, 77.2%, 51.5%)" stroke-width="1.5"></path><path d="M799.96 491.54L799.96 491.54" stroke="hsl(228.5, 77.2%, 51.5%)" stroke-width="1.5"></path><path d="M799.96 491.54L803.66 651.73" stroke="hsl(228.5, 77.2%, 51.5%)" stroke-width="1.5"></path><path d="M803.66 651.73L803.66 651.73" stroke="hsl(228.5, 77.2%, 51.5%)" stroke-width="1.5"></path><path d="M957.13 345.66L957.13 345.66" stroke="hsl(228.5, 77.2%, 51.5%)" stroke-width="1.5"></path><path d="M957.13 345.66L1144.04 402.08" stroke="hsl(228.5, 77.2%, 51.5%)" stroke-width="1.5"></path><path d="M957.13 345.66L1104.95 490.77" stroke="hsl(228.5, 77.2%, 51.5%)" stroke-width="1.5"></path><path d="M957.13 345.66L799.96 491.54" stroke="hsl(228.5, 77.2%, 51.5%)" stroke-width="1.5"></path><path d="M957.13 345.66L1148.76 206.95" stroke="hsl(228.5, 77.2%, 51.5%)" stroke-width="1.5"></path><path d="M957.13 345.66L1158.84 98.29" stroke="hsl(228.5, 77.2%, 51.5%)" stroke-width="1.5"></path><path d="M983.79 699.92L983.79 699.92" stroke="hsl(228.5, 77.2%, 51.5%)" stroke-width="1.5"></path><path d="M983.79 699.92L1115.37 695.07" stroke="hsl(228.5, 77.2%, 51.5%)" stroke-width="1.5"></path><path d="M983.79 699.92L803.66 651.73" stroke="hsl(228.5, 77.2%, 51.5%)" stroke-width="1.5"></path><path d="M983.79 699.92L1104.95 490.77" stroke="hsl(228.5, 77.2%, 51.5%)" stroke-width="1.5"></path><path d="M983.79 699.92L799.96 491.54" stroke="hsl(228.5, 77.2%, 51.5%)" stroke-width="1.5"></path><path d="M983.79 699.92L1281.89 691.45" stroke="hsl(228.5, 77.2%, 51.5%)" stroke-width="1.5"></path><path d="M1158.84 98.29L1158.84 98.29" stroke="hsl(228.5, 77.2%, 51.5%)" stroke-width="1.5"></path><path d="M1158.84 98.29L1148.76 206.95" stroke="hsl(228.5, 77.2%, 51.5%)" stroke-width="1.5"></path><path d="M1158.84 98.29L1262.38 45.33" stroke="hsl(228.5, 77.2%, 51.5%)" stroke-width="1.5"></path><path d="M1158.84 98.29L1310.13 220.9" stroke="hsl(228.5, 77.2%, 51.5%)" stroke-width="1.5"></path><path d="M1158.84 98.29L1290.16 -106.39" stroke="hsl(228.5, 77.2%, 51.5%)" stroke-width="1.5"></path><path d="M1158.84 98.29L1444.91 65.09" stroke="hsl(228.5, 77.2%, 51.5%)" stroke-width="1.5"></path><path d="M1148.76 206.95L1148.76 206.95" stroke="hsl(228.5, 77.2%, 51.5%)" stroke-width="1.5"></path><path d="M1148.76 206.95L1310.13 220.9" stroke="hsl(228.5, 77.2%, 51.5%)" stroke-width="1.5"></path><path d="M1148.76 206.95L1144.04 402.08" stroke="hsl(228.5, 77.2%, 51.5%)" stroke-width="1.5"></path><path d="M1144.04 402.08L1144.04 402.08" stroke="hsl(228.5, 77.2%, 51.5%)" stroke-width="1.5"></path><path d="M1144.04 402.08L1244.23 537.72" stroke="hsl(228.5, 77.2%, 51.5%)" stroke-width="1.5"></path><path d="M1115.37 695.07L1115.37 695.07" stroke="hsl(228.5, 77.2%, 51.5%)" stroke-width="1.5"></path><path d="M1290.16 -106.39L1290.16 -106.39" stroke="hsl(228.5, 77.2%, 51.5%)" stroke-width="1.5"></path><path d="M1290.16 -106.39L1262.38 45.33" stroke="hsl(228.5, 77.2%, 51.5%)" stroke-width="1.5"></path><path d="M1290.16 -106.39L1452.82 -73.93" stroke="hsl(228.5, 77.2%, 51.5%)" stroke-width="1.5"></path><path d="M1290.16 -106.39L1444.91 65.09" stroke="hsl(228.5, 77.2%, 51.5%)" stroke-width="1.5"></path><path d="M1290.16 -106.39L1587.7 -108.78" stroke="hsl(228.5, 77.2%, 51.5%)" stroke-width="1.5"></path><path d="M1262.38 45.33L1262.38 45.33" stroke="hsl(228.5, 77.2%, 51.5%)" stroke-width="1.5"></path><path d="M1262.38 45.33L1310.13 220.9" stroke="hsl(228.5, 77.2%, 51.5%)" stroke-width="1.5"></path><path d="M1262.38 45.33L1444.91 65.09" stroke="hsl(228.5, 77.2%, 51.5%)" stroke-width="1.5"></path><path d="M1262.38 45.33L1148.76 206.95" stroke="hsl(228.5, 77.2%, 51.5%)" stroke-width="1.5"></path><path d="M1262.38 45.33L1452.82 -73.93" stroke="hsl(228.5, 77.2%, 51.5%)" stroke-width="1.5"></path><path d="M1310.13 220.9L1310.13 220.9" stroke="hsl(228.5, 77.2%, 51.5%)" stroke-width="1.5"></path><path d="M1244.23 537.72L1244.23 537.72" stroke="hsl(228.5, 77.2%, 51.5%)" stroke-width="1.5"></path><path d="M1244.23 537.72L1281.89 691.45" stroke="hsl(228.5, 77.2%, 51.5%)" stroke-width="1.5"></path><path d="M1244.23 537.72L1414.97 515.89" stroke="hsl(228.5, 77.2%, 51.5%)" stroke-width="1.5"></path><path d="M1244.23 537.72L1400.68 638.94" stroke="hsl(228.5, 77.2%, 51.5%)" stroke-width="1.5"></path><path d="M1281.89 691.45L1281.89 691.45" stroke="hsl(228.5, 77.2%, 51.5%)" stroke-width="1.5"></path><path d="M1281.89 691.45L1400.68 638.94" stroke="hsl(228.5, 77.2%, 51.5%)" stroke-width="1.5"></path><path d="M1452.82 -73.93L1452.82 -73.93" stroke="hsl(228.5, 77.2%, 51.5%)" stroke-width="1.5"></path><path d="M1452.82 -73.93L1444.91 65.09" stroke="hsl(228.5, 77.2%, 51.5%)" stroke-width="1.5"></path><path d="M1452.82 -73.93L1587.7 -108.78" stroke="hsl(228.5, 77.2%, 51.5%)" stroke-width="1.5"></path><path d="M1452.82 -73.93L1566.75 95.85" stroke="hsl(228.5, 77.2%, 51.5%)" stroke-width="1.5"></path><path d="M1452.82 -73.93L1310.13 220.9" stroke="hsl(228.5, 77.2%, 51.5%)" stroke-width="1.5"></path><path d="M1444.91 65.09L1444.91 65.09" stroke="hsl(228.5, 77.2%, 51.5%)" stroke-width="1.5"></path><path d="M1444.91 65.09L1566.75 95.85" stroke="hsl(228.5, 77.2%, 51.5%)" stroke-width="1.5"></path><path d="M1418.83 376.05L1418.83 376.05" stroke="hsl(228.5, 77.2%, 51.5%)" stroke-width="1.5"></path><path d="M1418.83 376.05L1414.97 515.89" stroke="hsl(228.5, 77.2%, 51.5%)" stroke-width="1.5"></path><path d="M1418.83 376.05L1596.39 343.99" stroke="hsl(228.5, 77.2%, 51.5%)" stroke-width="1.5"></path><path d="M1418.83 376.05L1310.13 220.9" stroke="hsl(228.5, 77.2%, 51.5%)" stroke-width="1.5"></path><path d="M1418.83 376.05L1564.99 247.93" stroke="hsl(228.5, 77.2%, 51.5%)" stroke-width="1.5"></path><path d="M1418.83 376.05L1547.32 547.85" stroke="hsl(228.5, 77.2%, 51.5%)" stroke-width="1.5"></path><path d="M1414.97 515.89L1414.97 515.89" stroke="hsl(228.5, 77.2%, 51.5%)" stroke-width="1.5"></path><path d="M1414.97 515.89L1400.68 638.94" stroke="hsl(228.5, 77.2%, 51.5%)" stroke-width="1.5"></path><path d="M1400.68 638.94L1400.68 638.94" stroke="hsl(228.5, 77.2%, 51.5%)" stroke-width="1.5"></path><path d="M1587.7 -108.78L1587.7 -108.78" stroke="hsl(228.5, 77.2%, 51.5%)" stroke-width="1.5"></path><path d="M1587.7 -108.78L1566.75 95.85" stroke="hsl(228.5, 77.2%, 51.5%)" stroke-width="1.5"></path><path d="M1587.7 -108.78L1444.91 65.09" stroke="hsl(228.5, 77.2%, 51.5%)" stroke-width="1.5"></path><path d="M1566.75 95.85L1566.75 95.85" stroke="hsl(228.5, 77.2%, 51.5%)" stroke-width="1.5"></path><path d="M1564.99 247.93L1564.99 247.93" stroke="hsl(228.5, 77.2%, 51.5%)" stroke-width="1.5"></path><path d="M1564.99 247.93L1596.39 343.99" stroke="hsl(228.5, 77.2%, 51.5%)" stroke-width="1.5"></path><path d="M1596.39 343.99L1596.39 343.99" stroke="hsl(228.5, 77.2%, 51.5%)" stroke-width="1.5"></path><path d="M1569.78 649.49L1569.78 649.49" stroke="hsl(228.5, 77.2%, 51.5%)" stroke-width="1.5"></path><path d="M1569.78 649.49L1400.68 638.94" stroke="hsl(228.5, 77.2%, 51.5%)" stroke-width="1.5"></path><path d="M1569.78 649.49L1414.97 515.89" stroke="hsl(228.5, 77.2%, 51.5%)" stroke-width="1.5"></path><path d="M1569.78 649.49L1281.89 691.45" stroke="hsl(228.5, 77.2%, 51.5%)" stroke-width="1.5"></path><path d="M1569.78 649.49L1596.39 343.99" stroke="hsl(228.5, 77.2%, 51.5%)" stroke-width="1.5"></path><circle r="25" cx="-84.36" cy="489.85" fill="url(#SvgjsRadialGradient1009)"></circle><circle r="25" cx="252.31" cy="512.47" fill="url(#SvgjsRadialGradient1009)"></circle><circle r="25" cx="360.24" cy="497.31" fill="url(#SvgjsRadialGradient1009)"></circle><circle r="25" cx="364.45" cy="674.16" fill="url(#SvgjsRadialGradient1009)"></circle><circle r="25" cx="1104.95" cy="490.77" fill="url(#SvgjsRadialGradient1009)"></circle><circle r="25" cx="1302.42" cy="374.76" fill="url(#SvgjsRadialGradient1009)"></circle><circle r="25" cx="1547.32" cy="547.85" fill="url(#SvgjsRadialGradient1009)"></circle><circle r="5" cx="-97.43" cy="654.53" fill="#8b9ad9"></circle><circle r="5" cx="80.91" cy="551.65" fill="#8b9ad9"></circle><circle r="5" cx="82.09" cy="660.71" fill="#8b9ad9"></circle><circle r="5" cx="497.32" cy="536.01" fill="#8b9ad9"></circle><circle r="5" cx="538.6" cy="685.24" fill="#8b9ad9"></circle><circle r="5" cx="639.39" cy="496.24" fill="#8b9ad9"></circle><circle r="5" cx="684.46" cy="669.66" fill="#8b9ad9"></circle><circle r="5" cx="845.09" cy="376.1" fill="#8b9ad9"></circle><circle r="5" cx="799.96" cy="491.54" fill="#8b9ad9"></circle><circle r="5" cx="803.66" cy="651.73" fill="#8b9ad9"></circle><circle r="5" cx="957.13" cy="345.66" fill="#8b9ad9"></circle><circle r="5" cx="983.79" cy="699.92" fill="#8b9ad9"></circle><circle r="5" cx="1158.84" cy="98.29" fill="#8b9ad9"></circle><circle r="5" cx="1148.76" cy="206.95" fill="#8b9ad9"></circle><circle r="5" cx="1144.04" cy="402.08" fill="#8b9ad9"></circle><circle r="5" cx="1115.37" cy="695.07" fill="#8b9ad9"></circle><circle r="5" cx="1290.16" cy="-106.39" fill="#8b9ad9"></circle><circle r="5" cx="1262.38" cy="45.33" fill="#8b9ad9"></circle><circle r="5" cx="1310.13" cy="220.9" fill="#8b9ad9"></circle><circle r="5" cx="1244.23" cy="537.72" fill="#8b9ad9"></circle><circle r="5" cx="1281.89" cy="691.45" fill="#8b9ad9"></circle><circle r="5" cx="1452.82" cy="-73.93" fill="#8b9ad9"></circle><circle r="5" cx="1444.91" cy="65.09" fill="#8b9ad9"></circle><circle r="5" cx="1418.83" cy="376.05" fill="#8b9ad9"></circle><circle r="5" cx="1414.97" cy="515.89" fill="#8b9ad9"></circle><circle r="5" cx="1400.68" cy="638.94" fill="#8b9ad9"></circle><circle r="5" cx="1587.7" cy="-108.78" fill="#8b9ad9"></circle><circle r="5" cx="1566.75" cy="95.85" fill="#8b9ad9"></circle><circle r="5" cx="1564.99" cy="247.93" fill="#8b9ad9"></circle><circle r="5" cx="1596.39" cy="343.99" fill="#8b9ad9"></circle><circle r="5" cx="1569.78" cy="649.49" fill="#8b9ad9"></circle></g><defs><mask id="SvgjsMask1008"><rect width="1440" height="563" fill="#ffffff"></rect></mask><radialGradient id="SvgjsRadialGradient1009"><stop stop-color="#ffffff" offset="0.1"></stop><stop stop-color="#1735b3" offset="0.2"></stop><stop stop-color="rgba(23, 53, 179, 0)" offset="1"></stop></radialGradient></defs></svg>